<svg width="512" height="512" viewBox="0 0 512 512" fill="none" xmlns="http://www.w3.org/2000/svg">
<path d="M459.333 12H52.6667C41.8812 12 31.5375 16.2845 23.911 23.911C16.2845 31.5375 12 41.8812 12 52.6667V459.333C12 470.119 16.2845 480.463 23.911 488.089C31.5375 495.715 41.8812 500 52.6667 500H459.333C470.119 500 480.463 495.715 488.089 488.089C495.715 480.463 500 470.119 500 459.333V52.6667C500 41.8812 495.715 31.5375 488.089 23.911C480.463 16.2845 470.119 12 459.333 12ZM398.333 276.333H276.333V398.333C276.333 403.726 274.191 408.898 270.378 412.711C266.565 416.524 261.393 418.667 256 418.667C250.607 418.667 245.435 416.524 241.622 412.711C237.809 408.898 235.667 403.726 235.667 398.333V276.333H113.667C108.274 276.333 103.102 274.191 99.2888 270.378C95.4756 266.565 93.3333 261.393 93.3333 256C93.3333 250.607 95.4756 245.435 99.2888 241.622C103.102 237.809 108.274 235.667 113.667 235.667H235.667V113.667C235.667 108.274 237.809 103.102 241.622 99.2888C245.435 95.4756 250.607 93.3333 256 93.3333C261.393 93.3333 266.565 95.4756 270.378 99.2888C274.191 103.102 276.333 108.274 276.333 113.667V235.667H398.333C403.726 235.667 408.898 237.809 412.711 241.622C416.524 245.435 418.667 250.607 418.667 256C418.667 261.393 416.524 266.565 412.711 270.378C408.898 274.191 403.726 276.333 398.333 276.333Z" fill="#7D9FE1"/>
</svg>
